<?xml version="1.0" standalone="no"?>
<!DOCTYPE svg PUBLIC "-//W3C//DTD SVG 20010904//EN"
 "http://www.w3.org/TR/2001/REC-SVG-20010904/DTD/svg10.dtd">
<svg version="1.0" xmlns="http://www.w3.org/2000/svg"
 width="161.000000pt" height="161.000000pt" viewBox="0 0 161.000000 161.000000"
 preserveAspectRatio="xMidYMid meet">
<metadata>
Created by potrace 1.11, written by Peter Selinger 2001-2013
</metadata>
<g transform="translate(0.000000,161.000000) scale(0.100000,-0.100000)"
fill="#000000" stroke="none">
<path d="M67 1546 c-24 -19 -31 -145 -11 -193 12 -31 17 -33 61 -34 26 0 62
-2 78 -5 17 -2 49 -6 72 -9 23 -2 74 -16 114 -30 40 -14 79 -25 87 -25 19 0
202 -80 202 -89 0 -3 15 -12 33 -20 17 -8 34 -17 37 -21 3 -3 21 -17 40 -30
52 -36 128 -99 154 -127 6 -7 37 -41 69 -74 31 -34 57 -65 57 -69 0 -4 11 -20
25 -36 14 -16 25 -33 25 -37 0 -5 6 -15 12 -22 30 -33 37 -44 66 -106 57 -119
84 -184 89 -214 6 -38 17 -84 37 -160 9 -32 16 -86 16 -120 1 -88 9 -95 118
-95 84 0 92 2 103 22 29 55 -17 340 -86 522 -30 81 -101 222 -115 231 -5 3
-10 13 -10 21 0 9 -6 21 -12 28 -7 8 -20 24 -28 36 -8 12 -24 34 -35 49 -11
14 -24 32 -30 40 -58 77 -255 271 -276 271 -5 0 -24 13 -42 30 -18 16 -38 30
-45 30 -7 0 -23 9 -35 21 -12 11 -41 30 -64 41 -24 11 -43 24 -43 29 0 5 -9 9
-20 9 -11 0 -36 9 -55 20 -61 34 -266 97 -340 104 -38 3 -81 9 -95 12 -55 15
-135 14 -153 0z"/>
<path d="M65 1074 c-16 -12 -19 -27 -20 -104 -2 -107 11 -130 74 -130 21 0 60
-7 87 -15 27 -8 59 -15 72 -15 21 0 32 -4 85 -32 12 -6 39 -20 60 -30 21 -10
45 -25 55 -33 9 -8 45 -35 79 -60 34 -25 65 -55 68 -65 4 -11 12 -20 20 -20 8
0 16 -8 19 -17 4 -10 20 -33 36 -52 17 -18 30 -39 30 -45 0 -6 11 -24 25 -40
14 -16 25 -40 25 -54 0 -13 8 -36 19 -50 21 -30 39 -106 45 -196 6 -77 18 -85
127 -86 73 0 89 3 104 20 16 17 17 26 7 77 -7 32 -14 74 -16 93 -9 67 -18 105
-30 130 -7 14 -21 51 -30 83 -10 32 -24 64 -32 72 -8 7 -23 34 -34 59 -10 25
-23 46 -28 46 -5 0 -14 11 -20 24 -6 14 -21 37 -34 52 -45 54 -157 164 -166
164 -5 0 -17 9 -27 20 -10 11 -24 20 -32 20 -7 0 -13 4 -13 9 0 13 -188 106
-260 129 -181 55 -264 69 -295 46z"/>
<path d="M183 467 c-35 -13 -93 -63 -118 -101 -25 -38 -23 -171 3 -221 19 -38
59 -75 111 -102 51 -28 182 -10 209 29 7 10 19 18 27 18 7 0 17 9 20 20 3 11
11 20 16 20 5 0 9 8 9 18 0 9 7 26 15 36 23 30 19 118 -7 163 -63 111 -178
160 -285 120z"/>
</g>
</svg>
